<?xml version="1.0" encoding="utf-8"?>
<!-- Generator: Adobe Illustrator 26.0.1, SVG Export Plug-In . SVG Version: 6.00 Build 0)  -->
<svg version="1.1" id="Layer_1" xmlns="http://www.w3.org/2000/svg" xmlns:xlink="http://www.w3.org/1999/xlink" x="0px" y="0px"
	 viewBox="0 0 3959 528" style="enable-background:new 0 0 3959 528;" xml:space="preserve">
<style type="text/css">
	.st0{fill:#D51515;}
</style>
<path class="st0" d="M1451.1,0h97.5l0.1,98.2c0,0.3-0.2,0.5-0.5,0.5h-98c-0.1,0-0.3-0.1-0.3-0.3c0,0,0,0,0,0V1
	c0-0.4,0.2-0.6,0.5-0.7L1451.1,0z"/>
<path class="st0" d="M3746.2,129.7V28.3c0-0.3,0.2-0.5,0.5-0.5h97.8c0.4,0,0.7,0.3,0.7,0.7c0,91.2,0,182.9,0,275.2
	c0,6.6-0.1,12.7-0.5,18.4c-3.1,56.5-30.3,110.8-73.2,147.3c-20.3,17.3-43.2,30.4-68.7,39.4c-27.1,9.6-56.1,13.2-86.9,10.9
	c-64-4.8-124.1-40.9-159.2-95c-17.7-27.2-28.5-55.9-32.5-86.2c-4.8-36.2-0.9-73.7,12.9-107.1c22.4-54.5,60.6-93.5,114.5-117.1
	c13.7-6,28.1-10.3,42.9-13c50.4-8.9,97.6-1.2,141.8,23.2c3.1,1.7,6.1,3.6,9.2,5.6c0.2,0.1,0.5,0.1,0.6-0.1
	C3746.2,129.9,3746.2,129.8,3746.2,129.7z M3746.2,309.1c0-62.2-50.4-112.6-112.6-112.6l0,0c-62.2,0-112.6,50.4-112.6,112.6
	s50.4,112.6,112.6,112.6C3695.8,421.7,3746.2,371.3,3746.2,309.1C3746.2,309.1,3746.2,309.1,3746.2,309.1z"/>
<path class="st0" d="M1123.3,97.3c-19.4,7.7-37.5,17.9-54.1,30.5c-0.2,0.1-0.4,0.1-0.5-0.1c-0.1-0.1-0.1-0.2-0.1-0.2l0-98.2
	c0-0.4,0.2-0.6,0.6-0.6h97.8c0.3,0,0.5,0.2,0.5,0.5c0,0,0,0,0,0l0,55c0,0.5-0.3,0.8-0.8,0.9c-12.9,2.4-25.4,5.7-37.4,9.9
	c-0.4,0.1-0.7,0.3-1,0.5c-0.3,0.3-0.7,0.3-1.1,0.2c-0.5-0.1-0.9,0-1.2,0.4c-0.3,0.4-0.7,0.6-1.2,0.7
	C1124.3,97,1123.8,97.1,1123.3,97.3z"/>
<path class="st0" d="M1319.4,131.1c0.2-0.5,0.2-1,0.2-1.5c0-33.2,0-66.6,0-100.3c0-0.4,0.2-0.6,0.6-0.6h97.8c0.3,0,0.5,0.2,0.5,0.5
	c0,89.4,0,178.9,0,268.4c0,7-0.1,13.6-0.2,19.9c-0.6,28.6-7.6,57.8-20.4,83.7c-25.5,51.7-65.3,87.5-119.5,107.6
	c-27.2,10.1-56.6,14-88.5,11.7c-65.3-4.7-126.6-41.9-161.7-97.9c-16.9-27-27.2-55.5-30.9-85.5c-7.6-62.4,11.6-123.5,53.6-170
	c27-29.9,63.8-51.6,101.1-61.5c28-7.4,56.4-9,85.5-4.8c29.6,4.3,56.8,14.4,81.6,30.3C1319.3,131.3,1319.4,131.3,1319.4,131.1z
	 M1316.8,335.8c5.6-23.4,3.3-50.2-7.4-72.8c-16.1-33.8-47.4-58.3-84-64.1c-26.7-4.2-53.2,0.7-76.2,14.6c-26.6,16-46.5,44-52.4,74.9
	c-4.1,21.4-2.2,42.4,5.6,63.1c3.4,9.1,6.5,16.8,12.4,23.9c4.5,5.4,9,11.1,14,15.9c14.6,13.8,31.4,23.1,50.4,27.9
	c24.2,6.2,51.8,4.3,74.9-6.8C1286.1,396.9,1308.5,370.3,1316.8,335.8z"/>
<path class="st0" d="M584.8,223.8c0.1-0.1,0-0.2,0-0.3c-21.1-18.9-48.3-29.8-76.4-28.9c-33.7,1-61.5,13.9-83.5,38.7
	c-15,17-24,36.9-27,59.9c-5.5,42.8,12.8,84.7,48.4,108.8c20.7,14,43.8,20.5,69.3,19.5c20.2-0.8,38.5-6.6,54.8-17.3
	c20.6-13.5,35.5-31.2,44.7-53.2c0.1-0.2,0.2-0.3,0.4-0.3l102.2,0c0.5,0,0.6,0.2,0.5,0.6c-9.5,47.9-36.5,91.2-74.1,122
	c-46.3,38-106.8,53.2-166.2,44.6c-14.8-2.1-28.9-5.8-42.4-11c-57.9-22.4-102.1-66.7-124.3-124.7c-14.3-37.2-16.6-79.3-8.7-118.3
	c6.9-34.2,23.5-66.7,45.7-92.9c20.2-23.8,44.5-42.3,72.9-55.7c53.3-25.1,117.2-26.1,171.6-2.8c53.6,22.9,95.8,66.9,116.4,121.7
	c0.2,0.5,0.1,1.1-0.1,1.6c-3.6,6.2-7,12-10.4,17.3c-11.2,18-22.4,36.1-33.8,54.3c-0.2,0.4-0.6,0.6-1.1,0.6L534,308
	c-0.8,0-1-0.3-0.6-1L584.8,223.8z"/>
<path class="st0" d="M3041.2,297.7c0.4-3.7,0.6-7.2,0.6-10.5c0.1-49.1,0.1-89.1,0.1-120c0-0.3-0.1-0.4-0.4-0.4l-55.2,0.1
	c-0.3,0-0.5-0.2-0.5-0.5c0-0.1,0-0.2,0.1-0.3l41-69.4c0.3-0.5,0.8-0.7,1.3-0.7h111.9c0.4,0,0.7,0.3,0.7,0.7c0,0,0,0,0,0l-0.1,19.5
	c0,0.6,0.3,0.8,0.8,0.5c37.3-19.3,76.9-25.1,118.8-17.6c30.7,5.5,60.1,20.5,83.9,40.5c19.1,16.1,34.4,35.8,46,59
	c12.5,25.2,18.7,52.5,18.7,81.9c0,80.3,0,160.2,0,239.7c0,0.1-0.1,0.2-0.2,0.2h-98.2c-0.4,0-0.6-0.2-0.6-0.6
	c0.1-82.9,0-163.3,0-241.2c0-36.5-25-70-60.2-80.5c-33.7-10-70.2,2-91.3,29.7c-9.3,12.1-14.8,25.4-16.8,39.7c-0.7,5-1,11.3-1,19
	c0.1,77.7,0.1,155.4,0.1,233.1c0,0.6-0.3,0.9-0.9,0.9h-97.5c-0.2,0-0.4-0.2-0.4-0.4c0-62.2,0-124.4,0-186.7c0-4-0.3-8-0.5-12.1
	c0-0.1-0.1-0.1-0.2-0.1h0c-0.1,0-0.1,0.1-0.1,0.1c-0.1,4.7,0,9.2-0.7,13.8c-2.5,16.9-6.2,31.5-11.1,43.8
	c-21.9,55.4-59.3,96.1-112.3,122.1c-40.9,20.1-86.6,24.8-131.2,16.5c-54.9-10.2-104.9-43.3-135.1-90.6
	c-32.8-51.4-41.9-114.5-27.2-173.5c1.7-6.8,3.7-13.3,6-19.7c19.8-54.4,55.8-93.9,108.1-118.6c28-13.2,59.6-19.3,91.9-19.2
	c26.3,0,51.7,5.2,76.1,15.3c31.6,13.2,58.4,32,80.3,56.4c29.3,32.8,49.4,73.8,54.6,117.5c0.5,4.3,0.4,8.4,0.5,12.6
	C3041,298.3,3041.1,298.3,3041.2,297.7z M2938,339c9.7-28.3,4.7-58.2-10.6-83.4c-20.4-33.6-57.2-60.6-97.4-61.1
	c-32-0.3-59,10.5-81,32.4c-18.4,18.3-29.8,43.7-32.6,69.1c-2.4,21.4,1.1,42.2,10.5,62.5c9.5,20.6,24.1,36.8,43.8,48.6
	c8.7,5.2,17.7,9,26.8,11.5c21.3,5.7,45.8,5.8,66.2-2.5C2897.9,402.3,2925.8,374.5,2938,339z"/>
<path class="st0" d="M157.4,124.9c24.1-12.5,49.9-21.2,77.4-26.2c5.4-1,10.7-1.6,15.9-1.8c22.9-0.8,46.7,3.1,68.8,11.1
	c18.6,6.8,34.9,17,48.9,30.6c0.3,0.3,0.3,0.8,0,1.1c0,0,0,0,0,0l-70,70c-0.3,0.3-0.6,0.3-0.9,0c-5.2-5.1-12-10.2-18.5-11.7
	c-12.6-2.9-26.1-3.3-40.5-1.1c-46.3,6.9-78.7,45.2-81.7,91.2c-0.2,2.4-0.2,9-0.2,20c0,70.8,0,141.7,0,212.7c0,0.4-0.2,0.6-0.6,0.6
	H57.7c-0.3,0-0.6-0.3-0.6-0.6l0,0l0-352.3c0-0.4-0.3-0.7-0.7-0.7l-55,0c-0.2,0-0.4-0.2-0.4-0.4c0-0.1,0-0.2,0.1-0.2l41.8-69.8
	c0.2-0.3,0.5-0.5,0.9-0.5h112.4c0.3,0,0.6,0.2,0.6,0.6l0,0l0,27.1C156.6,125,156.9,125.2,157.4,124.9z"/>
<path class="st0" d="M1907.2,488c-35.9,22.5-75.1,33.2-117.7,32.2c-30.8-0.7-60-7.9-87.5-21.4c-41.7-20.6-75.3-52.8-96.1-93.8
	c-19.7-39-26.8-80.3-21.2-124.1c2.3-18.1,6.9-35.3,13.8-51.7c21.1-50.3,56-87.4,104.6-111.3c57.3-28.1,127.3-28.3,184.8,0.2
	c48,23.8,82.5,60.9,103.5,111.1c10.4,24.9,15.6,51.5,15.6,79.9c-0.1,71.2-0.1,141.4,0,210.7c0,0.3-0.3,0.6-0.6,0.6l0,0l-97.7,0
	c-0.4,0-0.6-0.2-0.6-0.6l0-31.4c0-0.3-0.2-0.5-0.5-0.5C1907.4,488,1907.3,488,1907.2,488z M1908.2,308.5c0-62.4-50.6-113-113-113
	c0,0,0,0,0,0c-62.4,0-113,50.6-113,113s50.6,113,113,113C1857.6,421.5,1908.2,370.9,1908.2,308.5
	C1908.2,308.6,1908.2,308.6,1908.2,308.5z"/>
<path class="st0" d="M2128.7,119c0,0.3,0.3,0.6,0.6,0.6c0.1,0,0.2,0,0.2-0.1c40.5-19.2,91.5-20.1,133.2-3.3
	c21.8,8.8,40.8,21.2,57.1,37.3c0.3,0.3,0.8,0.3,1.2,0c22.3-21.7,48-36.4,77.2-44c14.1-3.7,29.7-5.4,46.6-5
	c87.8,1.8,160.8,72.7,165,160.1c0.1,1.9,0.7,3.5,0.7,5.5c0,83.5,0,167,0,250.5c0,0.4-0.3,0.7-0.6,0.7l-97.6,0
	c-0.5,0-0.8-0.2-0.8-0.8c0-81.8,0-162.3,0.1-241.6c0-7.7-0.5-13.9-1.4-18.6c-4.5-21.8-19-40.2-39-50c-21.3-10.5-45.5-9.4-66,2.6
	c-21,12.2-35.5,35.4-35.5,60.1c-0.1,79.4-0.1,162-0.1,247.7c0,0.3-0.2,0.5-0.5,0.5l0,0h-97.9c-0.3,0-0.5-0.2-0.5-0.5
	c0-78.6,0-155.3,0-230c0-9.6,0.4-20-1.1-28.9c-5.2-30.3-31.5-55.2-62.6-58.3c-38.3-3.9-73.5,24.3-77.9,63c-0.3,2.5-0.4,8.8-0.4,18.9
	c0,78.5,0,156.9,0,235.3c0,0.3-0.2,0.5-0.5,0.5l-98.2,0c-0.2,0-0.2-0.1-0.2-0.2V168c0-0.2-0.1-0.3-0.3-0.3l-48.6,0
	c-0.7,0-0.8-0.3-0.5-0.8l41.9-69.9c0.1-0.2,0.3-0.2,0.4-0.2H2128c0.5,0,0.7,0.2,0.7,0.7L2128.7,119z"/>
<path class="st0" d="M845.2,290.6c-8.1,49.7,15.4,97.3,60,120c29.7,15.1,66,16.2,96.7,2.3c0.5-0.2,1,0,1.2,0.4
	c15.4,30.2,36.4,55.7,62.9,76.7c0.1,0.1,0.2,0.3,0,0.4c0,0-0.1,0.1-0.1,0.1c-32.5,19.7-67.5,30-105.1,30.8
	c-33.3,0.7-64.4-5.7-93.2-19.2c-43.5-20.4-77.9-53-99.6-95.3c-18.8-36.6-26.3-75.6-22.4-117.2c3-31.9,13.1-61.9,30.2-90
	c22.8-37.3,54.8-65.2,96-83.5c16.4-7.3,33.3-12.2,50.7-14.8c51.2-7.6,98.8,1.8,142.6,28.1c0.4,0.2,0.5,0.7,0.3,1.1
	c-0.1,0.1-0.1,0.2-0.2,0.2c-26.3,21-47,46.4-62.1,76.2c-0.3,0.6-0.7,0.7-1.3,0.4c-32.3-14.9-71.1-12.6-101.8,4.9
	C871.9,228.4,850.5,258.1,845.2,290.6z"/>
<path class="st0" d="M1450.2,128.8h98.3c0.1,0,0.3,0.1,0.3,0.3V521c0,0.1-0.1,0.3-0.3,0.3h-98.3c-0.1,0-0.3-0.1-0.3-0.3V129.1
	C1450,128.9,1450.1,128.8,1450.2,128.8z"/>
<path class="st0" d="M3925.1,528h-6.4c-13.3-1.7-22.7-8.1-28.2-19c-4.5-9.1-5.4-19.8-3.3-29.4c8.1-36.1,59.3-38.1,69.4-2
	c2.8,9.8,2,21.4-2.3,30.8C3948.9,519.9,3939.2,526.4,3925.1,528z"/>
</svg>
