<svg xmlns="http://www.w3.org/2000/svg" version="1.1" viewBox="0 0 2000 2000" width="1280" height="1280">
<path transform="translate(917,625)" d="m0 0 48 1h221l25 1 24 3 36 9 26 10 19 9 15 9 12 8 16 12 13 11 12 11 10 10 9 11 13 17 12 19 12 22 11 27 7 24 5 26 3 28v39l-4 29-6 26-9 27-11 24-8 15-11 17-8 11-13 16-15 16-8 7-11 10-19 14-19 12-23 12-20 8-18 6-20 5-25 4-20 2-25 1h-208l-3-4-16-44-13-34-18-49-2-4-2-1-151-1 3-9 15-44 12-38 2-3h186l7 18 22 58 14 39 7 19v2h56l114-1 27-4 15-4 16-6 19-9 16-10 14-11 13-12 11-12 13-17 11-19 6-13 6-19 4-17 2-14v-39l-3-21-5-19-6-17-8-16-9-15-13-17-22-22-16-12-15-9-16-8-15-6-22-6-13-2-13-1-144-1 11 27 10 28 24 64 11 28 19 52 19 51 13 34 8 21 3 9h-100l-5-11-15-41-13-34-17-46-14-37-17-46-11-30-13-35-14-39-12-31-14-38-7-18z" fill="#673ab7"/>
<path transform="translate(744,626)" d="m0 0h106l3 3 10 27 18 49 17 44 15 40 13 35 15 40 10 26 2 4-1 4h-97l-4-4-20-54-8-22-6-17-11-28-5-13-4-6-2-1-3 10-11 31-17 46-36 96-16 43-17 45-15 40-15 41-11 29-15 40-7 18-2 2h-99l1-7 8-20 15-40 13-34 11-30 15-41 9-23 19-50 10-28 10-27 11-29 13-34 11-29 9-26 15-39 16-42 9-24 13-36 4-8z" fill="#673ab7"/>
<path transform="translate(762,1050)" d="m0 0h1l1 5 13 1v1h-17z" fill="#FEFEFE"/>
</svg>